<?xml version="1.0" encoding="UTF-8" standalone="no"?>
<!-- Created with Inkscape (http://www.inkscape.org/) -->

<svg
   xmlns:dc="http://purl.org/dc/elements/1.1/"
   xmlns:cc="http://creativecommons.org/ns#"
   xmlns:rdf="http://www.w3.org/1999/02/22-rdf-syntax-ns#"
   xmlns:svg="http://www.w3.org/2000/svg"
   xmlns="http://www.w3.org/2000/svg"
   xmlns:sodipodi="http://sodipodi.sourceforge.net/DTD/sodipodi-0.dtd"
   xmlns:inkscape="http://www.inkscape.org/namespaces/inkscape"
   id="svg2"
   version="1.1"
   inkscape:version="0.91 r13725"
   width="659.40002"
   height="345"
   viewBox="0 0 659.40002 345"
   sodipodi:docname="NCT 127 Logo.svg">
  <metadata
     id="metadata8">
    <rdf:RDF>
      <cc:Work
         rdf:about="">
        <dc:format>image/svg+xml</dc:format>
        <dc:type
           rdf:resource="http://purl.org/dc/dcmitype/StillImage" />
        <dc:title></dc:title>
      </cc:Work>
    </rdf:RDF>
  </metadata>
  <defs
     id="defs6" />
  <sodipodi:namedview
     pagecolor="#ffffff"
     bordercolor="#666666"
     borderopacity="1"
     objecttolerance="10"
     gridtolerance="10"
     guidetolerance="10"
     inkscape:pageopacity="0"
     inkscape:pageshadow="2"
     inkscape:window-width="1366"
     inkscape:window-height="705"
     id="namedview4"
     showgrid="false"
     inkscape:zoom="1.2035813"
     inkscape:cx="448.20001"
     inkscape:cy="172.5"
     inkscape:window-x="-8"
     inkscape:window-y="-8"
     inkscape:window-maximized="1"
     inkscape:current-layer="svg2" />
  <path
     style="fill:#000000"
     d="m 1.3668658,224.09603 0,-118.39666 27.4181742,0 27.418174,0 0,32.88796 c 0,19.59793 0.308006,32.77604 0.762204,32.61101 0.419213,-0.15233 16.492751,-15.88662 35.718972,-34.9651 l 34.95678,-34.68814 6.98112,0 c 17.86354,0 38.89187,7.84691 50.74301,18.93522 10.50296,9.82691 18.01294,22.49534 21.77512,36.73198 3.54197,13.40332 3.57031,14.20592 3.58628,101.57187 l 0.0153,83.70852 -26.56378,0 -26.5638,0 -0.28217,-81.21596 c -0.30449,-87.63964 -0.072,-82.95147 -4.63503,-93.46122 -1.8818,-4.33423 -6.75287,-11.35063 -7.91549,-11.40166 -0.40603,-0.0178 -20.85996,20.25081 -45.453185,45.04141 l -44.71492,45.07382 -0.03607,47.9818 -0.03607,47.98181 -26.58732,0 -26.5873202,0 0,-118.39666 z"
     id="path3338"
     inkscape:connector-curvature="0" />
  <path
     style="fill:#000000"
     d="m 352.818,344.09334 c -40.10692,-4.28084 -69.10749,-23.64727 -87.00084,-58.09872 -6.48337,-12.48292 -6.05478,-7.84627 -6.05478,-65.50228 l 0,-51.73764 4.0886,-8.47148 c 11.22149,-23.25063 27.49919,-40.02622 49.61705,-51.13472 5.69971,-2.86263 20.1428,-7.28705 28.79313,-8.82035 11.52926,-2.043595 38.89053,-1.435853 50.85325,1.12954 33.09961,7.09818 56.35295,26.70996 66.39705,55.99899 1.78874,5.21605 5.4718,21.93681 5.4718,24.84149 0,0.36882 -11.95718,0.67059 -26.57149,0.67059 l -26.5715,0 -0.46902,-2.28485 c -2.20621,-10.7473 -6.06508,-18.29623 -12.94303,-25.31987 -8.9488,-9.13835 -19.21415,-13.0239 -34.54985,-13.07752 -21.57494,-0.0754 -37.75161,9.2026 -47.64829,27.32841 l -2.4622,4.50953 0,47.61561 0,47.61561 3.36971,5.6192 c 7.37181,12.29291 17.07039,19.97567 30.31535,24.01442 7.75774,2.36554 25.42728,2.14914 33.42293,-0.40935 15.74882,-5.03938 27.50854,-18.95594 30.46872,-36.05695 l 0.53933,-3.1157 26.54966,0 c 22.37424,0 26.54968,0.18545 26.54968,1.17917 0,0.64854 -0.94806,5.94391 -2.10681,11.76747 -8.07111,40.56328 -36.39404,65.49017 -80.56314,70.90324 -10.81182,1.32502 -21.95546,1.64094 -29.49531,0.83616 z"
     id="path3340"
     inkscape:connector-curvature="0" />
  <path
     style="fill:#000000"
     d="m 592.10388,339.00983 c -13.1329,-1.63515 -26.07971,-7.98922 -33.20856,-16.29818 -4.17389,-4.86484 -7.94586,-12.34207 -10.21575,-20.25084 -1.70358,-5.93562 -1.75252,-7.8574 -2.05362,-80.64964 l -0.30846,-74.56912 -24.8809,0 -24.88089,0 0,-22.01763 0,-22.01762 24.92561,0 24.92562,0 0,-38.634702 0,-38.634699 26.58732,0 26.58732,0 0,38.634699 0,38.634702 27.00274,0 27.00275,0 0,22.01762 0,22.01763 -27.00275,0 -27.00274,0 0.013,64.18345 c 0.0137,67.96365 0.17013,71.01473 3.90214,76.12649 0.87597,1.19981 3.06408,2.92924 4.86246,3.84318 3.01568,1.53257 5.1908,1.68057 27.9877,1.90438 l 24.7179,0.24266 0,23.22895 0,23.22896 L 629.7,339.8929 c -17.2506,-0.059 -34.16886,-0.45634 -37.59614,-0.88307 l 2e-5,0 z"
     id="path3342"
     inkscape:connector-curvature="0" />
</svg>
